/vscmnt/brussel_pixiu_data/_data_brussel/112/vsc11236/PredSimResults/SUBJ04opt3D/worker_06.mot
version=1
nRows=8
nColumns=50
inDegrees=yes
endheader
                time	         pelvis_tilt	         pelvis_list	     pelvis_rotation	           pelvis_tx	           pelvis_ty	           pelvis_tz	       hip_flexion_r	     hip_adduction_r	      hip_rotation_r	        knee_angle_r	       ankle_angle_r	         mtp_angle_r	       hip_flexion_l	     hip_adduction_l	      hip_rotation_l	        knee_angle_l	       ankle_angle_l	         mtp_angle_l	    lumbar_extension	      lumbar_bending	     lumbar_rotation	 ercspn_r/activation	 intobl_r/activation	 extobl_r/activation	    abd_r/activation	    add_r/activation	hamstrings_r/activation	bifemsh_r/activation	glut_max_r/activation	iliopsoas_r/activation	rect_fem_r/activation	  vasti_r/activation	gastroc_r/activation	 soleus_r/activation	tib_ant_r/activation	 ercspn_l/activation	 intobl_l/activation	 extobl_l/activation	    abd_l/activation	    add_l/activation	hamstrings_l/activation	bifemsh_l/activation	glut_max_l/activation	iliopsoas_l/activation	rect_fem_l/activation	  vasti_l/activation	gastroc_l/activation	 soleus_l/activation	tib_ant_l/activation	
          0.00000000	         -2.76765429	          0.44108558	          8.54932388	          0.00000000	          0.87736730	         -0.00931070	         30.93863951	         -3.47370031	         -9.25626339	        -11.75943620	          5.04239942	          0.24407958	        -13.69391740	         -0.64675536	         -6.60048448	         -8.87717449	         11.02156105	         25.46813086	        -13.43665624	         -2.66193735	         -8.76880909	          0.05668774	          0.22957155	          0.01441210	          0.01699318	          0.31450316	          0.05858580	          0.03520759	          0.01634961	          0.16401485	          0.02973230	          0.04630008	          0.00999999	          0.00999999	          0.35210157	          0.03535928	          0.00999999	          0.00999999	          0.04461233	          0.00999999	          0.02661087	          0.20222395	          0.01643319	          0.01200505	          0.01000001	          0.00999999	          0.26988824	          0.27111367	          0.00999999	
          0.01203026	         -2.83960594	          0.40857537	          8.35669003	          0.01666514	          0.87521312	         -0.00892275	         30.80149028	         -3.27244813	         -9.33313277	        -13.16205870	          4.76052635	          0.23025585	        -14.32407408	         -0.81928306	         -7.21922058	         -9.63128277	         10.46262808	         27.05123915	        -12.95143807	         -2.10746139	         -8.92150931	          0.04721994	          0.21462464	          0.01200504	          0.01415503	          0.27163160	          0.06493304	          0.02932734	          0.08557523	          0.13662162	          0.02476651	          0.04088945	          0.01730178	          0.02421119	          0.36142955	          0.05585540	          0.00999999	          0.00999999	          0.03716133	          0.01000001	          0.02216642	          0.16844917	          0.01368858	          0.01000001	          0.00999999	          0.00999999	          0.22481238	          0.25623909	          0.00999999	
          0.02406052	         -2.89685040	          0.31388754	          8.12145177	          0.03365490	          0.87322383	         -0.00848222	         30.52875782	         -3.05429988	         -9.35536887	        -14.44501149	          4.36948450	          0.22741690	        -14.84421041	         -1.07054673	         -7.86844048	        -10.64136856	          9.83006694	         28.64306464	        -12.43687361	         -1.46753282	         -9.03445426	          0.04010055	          0.17877873	          0.01000000	          0.05099529	          0.23043404	          0.06531259	          0.02442919	          0.07128273	          0.11380352	          0.02063009	          0.09510677	          0.01441210	          0.02016752	          0.40436928	          0.05557223	          0.00999999	          0.00999999	          0.03095476	          0.00999999	          0.01846426	          0.14031533	          0.01140235	          0.02077112	          0.00999999	          0.00999999	          0.18726494	          0.23459570	          0.00999999	
          0.03609078	         -2.94053395	          0.19218459	          7.83419506	          0.05076956	          0.87158195	         -0.00793282	         30.16591350	         -2.81101247	         -9.47182238	        -15.55421416	          3.85739604	          0.20262432	        -15.18228024	         -1.37234701	         -8.55405676	        -12.01049338	          9.06663675	         30.25017963	        -11.92559878	         -0.78998061	         -9.09973945	          0.04441981	          0.14891968	          0.00999999	          0.08203091	          0.22890753	          0.06418597	          0.02034911	          0.05937732	          0.09479642	          0.01718452	          0.17041115	          0.01200503	          0.01679921	          0.43751250	          0.07411328	          0.00999999	          0.00999999	          0.02578480	          0.00999999	          0.01538043	          0.11688032	          0.00999999	          0.01730200	          0.00999999	          0.00999999	          0.15598856	          0.20190735	          0.00999999	
          0.04812104	         -2.97153340	          0.03657422	          7.50877404	          0.06785023	          0.87045684	         -0.00727486	         29.71393060	         -2.53154161	         -9.66971301	        -16.55542320	          3.55250162	          0.17539266	        -15.26372889	         -1.74865852	         -9.26542025	        -13.84163921	          8.14327227	         31.84070309	        -11.43579624	         -0.07116811	         -9.12000678	          0.04102274	          0.12404760	          0.00999999	          0.12658217	          0.20744255	          0.06598282	          0.01695047	          0.04946032	          0.07896383	          0.01431441	          0.23145218	          0.00999999	          0.01399346	          0.44867813	          0.10844713	          0.00999999	          0.00999999	          0.02147830	          0.01000000	          0.03611504	          0.09735935	          0.00999999	          0.01441227	          0.00999999	          0.00999999	          0.12993585	          0.16818544	          0.00999999	
          0.06015131	         -2.99217818	         -0.15539914	          7.15975395	          0.08469436	          0.87003557	         -0.00650991	         29.19046690	         -2.20263201	         -9.87633470	        -17.46051145	          3.49233493	          0.14924839	        -15.00673787	         -2.22223052	         -9.98924379	        -16.23702412	          7.01421645	         33.35446312	        -10.98877310	          0.68658722	         -9.10207236	          0.03534133	          0.10332957	          0.00999999	          0.15505097	          0.19810811	          0.06609678	          0.01411946	          0.04119962	          0.06577555	          0.01192367	          0.27472855	          0.01000000	          0.01178589	          0.44313315	          0.13189663	          0.00999999	          0.00999999	          0.01789107	          0.05164992	          0.08008283	          0.08109871	          0.00999999	          0.01200518	          0.00999999	          0.01000002	          0.10823439	          0.14009565	          0.00999999	
          0.07218157	         -3.00446419	         -0.37111849	          6.79675346	          0.10114171	          0.87042754	         -0.00564884	         28.60251534	         -1.82518180	        -10.02604252	        -18.25367955	          3.64889483	          0.13152530	        -14.35827255	         -2.79714443	        -10.71993858	        -19.24669039	          5.62345127	         34.68391585	        -10.60230262	          1.46517609	         -9.05052145	          0.02947352	          0.08607180	          0.00999999	          0.16387461	          0.20623314	          0.07246058	          0.01176128	          0.03431859	          0.05478993	          0.00999999	          0.29595797	          0.00999999	          0.00999999	          0.41996750	          0.13649851	          0.00999999	          0.00999999	          0.01490296	          0.14035307	          0.08575979	          0.06755386	          0.00999999	          0.01000012	          0.00999999	          0.00999999	          0.09015743	          0.11669733	          0.00999999	
          0.08421183	         -3.00964463	         -0.57886990	          6.42373896	          0.11712714	          0.87161278	         -0.00471645	         27.92247793	         -1.42508924	        -10.10092321	        -18.87011085	          3.96839686	          0.12934811	        -13.31080217	         -3.45358619	        -11.47745571	        -22.86482356	          4.02208536	         35.49331943	        -10.28511153	          2.22726958	         -8.96645204	          0.02455095	          0.07169637	          0.00999999	          0.16754921	          0.19954023	          0.07559875	          0.01000001	          0.02865228	          0.04563909	          0.00999999	          0.30784959	          0.01000000	          0.01000003	          0.38381134	          0.13199399	          0.01000000	          0.00999999	          0.01241392	          0.20504313	          0.07143649	          0.05627124	          0.00999999	          0.00999999	          0.00999999	          0.00999999	          0.07509963	          0.09720692	          0.01828596	
